<mxfile host="app.diagrams.net" agent="Mozilla/5.0 (Windows NT 10.0; Win64; x64) AppleWebKit/537.36 (KHTML, like Gecko) Chrome/132.0.0.0 YaBrowser/25.2.0.0 Safari/537.36" version="26.2.9">
  <diagram name="Page-1" id="Kzf7MEEWa-6GBh0mOAbA">
    <mxGraphModel dx="979" dy="516" grid="1" gridSize="10" guides="1" tooltips="1" connect="1" arrows="1" fold="1" page="1" pageScale="1" pageWidth="827" pageHeight="1169" math="0" shadow="0">
      <root>
        <mxCell id="0" />
        <mxCell id="1" parent="0" />
        <mxCell id="c2U-mr6y9Jk8_JyGXo_v-6" value="" style="edgeStyle=orthogonalEdgeStyle;rounded=0;orthogonalLoop=1;jettySize=auto;html=1;" edge="1" parent="1" source="c2U-mr6y9Jk8_JyGXo_v-1" target="c2U-mr6y9Jk8_JyGXo_v-5">
          <mxGeometry relative="1" as="geometry" />
        </mxCell>
        <mxCell id="c2U-mr6y9Jk8_JyGXo_v-1" value="Система исправно работает и страховые&amp;nbsp; полисы/ компенсации оформляются" style="rounded=0;whiteSpace=wrap;html=1;fillColor=#B7FAFF;" vertex="1" parent="1">
          <mxGeometry x="310" y="80" width="150" height="90" as="geometry" />
        </mxCell>
        <mxCell id="c2U-mr6y9Jk8_JyGXo_v-2" value="" style="ellipse;html=1;shape=startState;fillColor=#000000;strokeColor=#ff0000;" vertex="1" parent="1">
          <mxGeometry x="10" y="110" width="30" height="30" as="geometry" />
        </mxCell>
        <mxCell id="c2U-mr6y9Jk8_JyGXo_v-3" value="" style="edgeStyle=orthogonalEdgeStyle;html=1;verticalAlign=bottom;endArrow=open;endSize=8;strokeColor=#ff0000;rounded=0;entryX=0;entryY=0.5;entryDx=0;entryDy=0;" edge="1" source="c2U-mr6y9Jk8_JyGXo_v-2" parent="1" target="c2U-mr6y9Jk8_JyGXo_v-1">
          <mxGeometry relative="1" as="geometry">
            <mxPoint x="165" y="200" as="targetPoint" />
          </mxGeometry>
        </mxCell>
        <mxCell id="c2U-mr6y9Jk8_JyGXo_v-4" value="Start" style="text;html=1;align=center;verticalAlign=middle;resizable=0;points=[];autosize=1;strokeColor=none;fillColor=none;" vertex="1" parent="1">
          <mxGeometry y="80" width="50" height="30" as="geometry" />
        </mxCell>
        <mxCell id="c2U-mr6y9Jk8_JyGXo_v-8" value="" style="edgeStyle=orthogonalEdgeStyle;rounded=0;orthogonalLoop=1;jettySize=auto;html=1;" edge="1" parent="1" source="c2U-mr6y9Jk8_JyGXo_v-5" target="c2U-mr6y9Jk8_JyGXo_v-7">
          <mxGeometry relative="1" as="geometry" />
        </mxCell>
        <mxCell id="c2U-mr6y9Jk8_JyGXo_v-5" value="Система генерирует отчеты&amp;nbsp;" style="html=1;whiteSpace=wrap;fillColor=#B7FAFF;" vertex="1" parent="1">
          <mxGeometry x="330" y="210" width="110" height="50" as="geometry" />
        </mxCell>
        <mxCell id="c2U-mr6y9Jk8_JyGXo_v-10" value="" style="edgeStyle=orthogonalEdgeStyle;rounded=0;orthogonalLoop=1;jettySize=auto;html=1;" edge="1" parent="1" source="c2U-mr6y9Jk8_JyGXo_v-7" target="c2U-mr6y9Jk8_JyGXo_v-9">
          <mxGeometry relative="1" as="geometry" />
        </mxCell>
        <mxCell id="c2U-mr6y9Jk8_JyGXo_v-7" value="Отчеты проверяются руководством" style="html=1;whiteSpace=wrap;fillColor=#B7FAFF;" vertex="1" parent="1">
          <mxGeometry x="330" y="310" width="110" height="50" as="geometry" />
        </mxCell>
        <mxCell id="c2U-mr6y9Jk8_JyGXo_v-13" value="" style="edgeStyle=orthogonalEdgeStyle;rounded=0;orthogonalLoop=1;jettySize=auto;html=1;" edge="1" parent="1" source="c2U-mr6y9Jk8_JyGXo_v-9" target="c2U-mr6y9Jk8_JyGXo_v-12">
          <mxGeometry relative="1" as="geometry" />
        </mxCell>
        <mxCell id="c2U-mr6y9Jk8_JyGXo_v-15" value="" style="edgeStyle=orthogonalEdgeStyle;rounded=0;orthogonalLoop=1;jettySize=auto;html=1;" edge="1" parent="1" source="c2U-mr6y9Jk8_JyGXo_v-9" target="c2U-mr6y9Jk8_JyGXo_v-14">
          <mxGeometry relative="1" as="geometry" />
        </mxCell>
        <mxCell id="c2U-mr6y9Jk8_JyGXo_v-9" value="&lt;div&gt;&lt;br&gt;&lt;/div&gt;Удовлетворительны ли результаты&amp;nbsp;" style="rhombus;whiteSpace=wrap;html=1;fillColor=#FFFB87;" vertex="1" parent="1">
          <mxGeometry x="307.5" y="400" width="155" height="90" as="geometry" />
        </mxCell>
        <mxCell id="c2U-mr6y9Jk8_JyGXo_v-26" style="edgeStyle=orthogonalEdgeStyle;rounded=0;orthogonalLoop=1;jettySize=auto;html=1;" edge="1" parent="1" source="c2U-mr6y9Jk8_JyGXo_v-12" target="c2U-mr6y9Jk8_JyGXo_v-24">
          <mxGeometry relative="1" as="geometry" />
        </mxCell>
        <mxCell id="c2U-mr6y9Jk8_JyGXo_v-12" value="Компания продолжает текущую политику и работает в том же направлении" style="whiteSpace=wrap;html=1;fillColor=#B7FAFF;" vertex="1" parent="1">
          <mxGeometry x="100" y="405" width="140" height="80" as="geometry" />
        </mxCell>
        <mxCell id="c2U-mr6y9Jk8_JyGXo_v-22" value="" style="edgeStyle=orthogonalEdgeStyle;rounded=0;orthogonalLoop=1;jettySize=auto;html=1;" edge="1" parent="1" source="c2U-mr6y9Jk8_JyGXo_v-14" target="c2U-mr6y9Jk8_JyGXo_v-21">
          <mxGeometry relative="1" as="geometry" />
        </mxCell>
        <mxCell id="c2U-mr6y9Jk8_JyGXo_v-14" value="Руководство анализирует проблемы, разрабатывает альтернативные пути развития" style="whiteSpace=wrap;html=1;fillColor=#B7FAFF;" vertex="1" parent="1">
          <mxGeometry x="530" y="405" width="140" height="80" as="geometry" />
        </mxCell>
        <mxCell id="c2U-mr6y9Jk8_JyGXo_v-16" value="&lt;font style=&quot;font-size: 18px;&quot;&gt;Yes&lt;/font&gt;" style="text;html=1;align=center;verticalAlign=middle;resizable=0;points=[];autosize=1;strokeColor=none;fillColor=none;" vertex="1" parent="1">
          <mxGeometry x="257.5" y="413" width="50" height="40" as="geometry" />
        </mxCell>
        <mxCell id="c2U-mr6y9Jk8_JyGXo_v-17" value="&lt;font style=&quot;font-size: 18px;&quot;&gt;No&lt;/font&gt;" style="text;html=1;align=center;verticalAlign=middle;resizable=0;points=[];autosize=1;strokeColor=none;fillColor=none;" vertex="1" parent="1">
          <mxGeometry x="462.5" y="413" width="50" height="40" as="geometry" />
        </mxCell>
        <mxCell id="c2U-mr6y9Jk8_JyGXo_v-23" style="edgeStyle=orthogonalEdgeStyle;rounded=0;orthogonalLoop=1;jettySize=auto;html=1;entryX=1;entryY=0.5;entryDx=0;entryDy=0;" edge="1" parent="1" source="c2U-mr6y9Jk8_JyGXo_v-21" target="c2U-mr6y9Jk8_JyGXo_v-1">
          <mxGeometry relative="1" as="geometry">
            <Array as="points">
              <mxPoint x="600" y="125" />
            </Array>
          </mxGeometry>
        </mxCell>
        <mxCell id="c2U-mr6y9Jk8_JyGXo_v-21" value="В компании предпринимаются меры по увеличению прибыльности и эффективности ее работы&amp;nbsp;" style="whiteSpace=wrap;html=1;fillColor=#B7FAFF;" vertex="1" parent="1">
          <mxGeometry x="530" y="210" width="140" height="90" as="geometry" />
        </mxCell>
        <mxCell id="c2U-mr6y9Jk8_JyGXo_v-24" value="" style="ellipse;html=1;shape=endState;fillColor=#000000;strokeColor=#ff0000;" vertex="1" parent="1">
          <mxGeometry x="10" y="430" width="30" height="30" as="geometry" />
        </mxCell>
        <mxCell id="c2U-mr6y9Jk8_JyGXo_v-25" value="End" style="text;html=1;align=center;verticalAlign=middle;resizable=0;points=[];autosize=1;strokeColor=none;fillColor=none;" vertex="1" parent="1">
          <mxGeometry x="5" y="400" width="40" height="30" as="geometry" />
        </mxCell>
      </root>
    </mxGraphModel>
  </diagram>
</mxfile>
